<svg width="126" height="91" viewBox="0 0 126 91" fill="none" xmlns="http://www.w3.org/2000/svg">
<path d="M62.9817 6.80912C64.3789 6.80912 65.7334 6.81813 67.0678 6.835C69.8965 6.86763 72.6137 6.93737 75.1495 7.04311C77.8911 7.1556 80.5783 7.31757 83.1141 7.52568C85.8857 7.75067 88.5014 8.03752 90.8858 8.37387C93.3973 8.71842 95.8819 9.17513 98.3276 9.74177C100.693 10.2834 102.987 11.0037 105.177 11.8926C107.419 12.7859 109.432 13.9988 111.112 15.4698C114.113 18.1696 115.827 21.9426 116.671 27.7314C117.485 35.9148 117.563 44.1334 116.903 52.3254L116.774 53.4773L116.676 54.2074C115.83 60.0243 114.111 63.8288 111.104 66.5455C109.424 68.0182 107.412 69.2327 105.169 70.1272C102.982 71.0169 100.69 71.7376 98.3262 72.2792C95.8795 72.8459 93.394 73.3029 90.8816 73.6482C88.4529 73.9924 85.8342 74.2793 83.1141 74.5009C80.6583 74.7011 77.9811 74.862 75.1495 74.979C72.6151 75.0836 69.8965 75.1544 67.065 75.1871C65.9121 75.2017 64.7604 75.2129 63.5603 75.2152C62.8194 75.2622 62.0829 75.3444 61.3546 75.4615C60.4657 75.7108 59.5938 75.9965 58.7429 76.3176L54.9058 77.8351L46.4997 81.1604L44.1224 82.1008C43.9795 79.41 43.0352 75.4289 36.7249 73.8946C36.7249 73.8946 36.3435 73.8091 36.2035 73.7821C36.0635 73.7551 35.6635 73.6965 35.6635 73.6965L35.4748 73.6684L35.1219 73.6167C32.604 73.2651 30.113 72.8035 27.6602 72.2342C25.2893 71.6911 22.9891 70.9717 20.7912 70.0856C18.5494 69.1985 16.5355 67.9926 14.851 66.5286C11.838 63.8367 10.1749 60.1863 9.3063 54.3413L9.08203 52.3299C8.4211 44.0517 8.50773 35.7469 9.34083 27.4783C10.1766 21.9977 11.8893 18.3507 14.8723 15.6667C16.5694 14.1777 18.5978 12.9452 20.8571 12.0298C23.0478 11.1256 25.344 10.3903 27.7143 9.83401C30.1545 9.25533 32.6352 8.78735 35.1435 8.43236C37.5036 8.08926 40.1178 7.79566 42.9037 7.55943C45.4638 7.34232 48.1425 7.17248 50.8526 7.05773C53.3784 6.94524 56.093 6.8766 58.9274 6.84173C60.2489 6.82486 61.596 6.81475 62.9803 6.81475L62.9817 6.80912ZM67.1947 82.0085C70.1396 81.9725 72.9412 81.9002 75.5995 81.7914C78.5748 81.6685 81.3765 81.5001 84.0042 81.2864C87.0229 81.04 89.8145 80.7295 92.4118 80.3639C95.2478 79.9747 98.0529 79.4571 100.813 78.8138C103.72 78.1473 106.536 77.2574 109.221 76.1567C112.402 74.8733 115.253 73.1354 117.627 71.0316C122.283 66.8256 124.335 61.4563 125.276 54.9903L125.562 52.916L125.526 52.9295C126.228 44.3218 126.15 35.6858 125.293 27.0868L125.285 27.0475C124.355 20.5758 122.303 15.2021 117.632 10.9916C115.256 8.89055 112.406 7.15534 109.225 5.87432C106.54 4.77484 103.724 3.88562 100.818 3.21951C98.0572 2.57758 95.2518 2.06079 92.416 1.67165C89.8187 1.30605 87.0243 0.99669 84.0084 0.753708C81.374 0.537724 78.5795 0.365601 75.6037 0.242985C72.9473 0.133494 70.146 0.0615148 67.1992 0.0270175C65.8235 0.0101437 64.426 0 62.9845 0C61.5558 0 60.1603 0.0112766 58.7945 0.0281503C55.842 0.0641476 53.0408 0.139121 50.3911 0.253113C47.411 0.380228 44.6179 0.560232 41.9864 0.78409C38.971 1.03907 36.168 1.35477 33.5774 1.73125C30.7385 2.13367 27.9314 2.66441 25.1699 3.32078C22.2645 4.0045 19.4504 4.90866 16.7669 6.02057C13.5913 7.32324 10.7435 9.07063 8.36352 11.1772C3.73902 15.3393 1.66604 20.5848 0.730287 26.7943C-0.145856 35.4882 -0.233819 44.2202 0.4673 52.9239L0.390218 52.8946L0.69471 54.978C1.62618 61.4012 3.61191 66.7896 8.36213 71.0361C10.7424 73.1227 13.5913 74.8457 16.7655 76.1185C19.453 77.2088 22.2667 78.094 25.1685 78.7621C27.932 79.4048 30.7389 79.9256 33.576 80.3223C33.7789 80.3527 33.9717 80.3831 34.1732 80.4112C35.2675 80.6767 35.4975 80.7318 35.4975 83.3854V86.9672C35.6161 88.3621 36.7079 91 39.9651 91C40.657 90.9901 41.3406 90.8819 41.9836 90.6805C42.8385 90.414 43.6481 90.0648 44.3937 89.6411C44.4623 89.6118 44.5268 89.5815 44.5939 89.5455L50.3897 87.2551L58.7931 83.9299C58.7931 83.9299 63.2291 82.2785 63.6277 82.1919C64.0262 82.1053 67.1961 82.0018 67.1961 82.0018L67.1947 82.0085Z" fill="#2F80ED"/>
<path d="M25.983 51C25.5577 51 25.229 50.8937 24.997 50.681C24.7844 50.449 24.678 50.1203 24.678 49.695V31.86C24.678 31.4347 24.7844 31.1157 24.997 30.903C25.229 30.671 25.5577 30.555 25.983 30.555H36.771C37.0997 30.555 37.351 30.642 37.525 30.816C37.699 30.99 37.786 31.2317 37.786 31.541C37.786 31.8697 37.699 32.121 37.525 32.295C37.351 32.469 37.0997 32.556 36.771 32.556H26.998V39.632H36.162C36.4907 39.632 36.742 39.719 36.916 39.893C37.09 40.0477 37.177 40.2893 37.177 40.618C37.177 40.9467 37.09 41.198 36.916 41.372C36.742 41.546 36.4907 41.633 36.162 41.633H26.998V48.999H36.771C37.0997 48.999 37.351 49.086 37.525 49.26C37.699 49.434 37.786 49.6757 37.786 49.985C37.786 50.3137 37.699 50.565 37.525 50.739C37.351 50.913 37.0997 51 36.771 51H25.983ZM42.4263 51.203C42.0396 51.203 41.7496 51.0967 41.5563 50.884C41.3629 50.6713 41.2663 50.3717 41.2663 49.985V37.892C41.2663 37.5053 41.3629 37.2153 41.5563 37.022C41.7496 36.8093 42.0299 36.703 42.3973 36.703C42.7646 36.703 43.0449 36.8093 43.2383 37.022C43.4509 37.2153 43.5573 37.5053 43.5573 37.892V40.386L43.2383 40.038C43.6443 38.9167 44.3016 38.0757 45.2103 37.515C46.1383 36.935 47.2016 36.645 48.4003 36.645C49.5216 36.645 50.4496 36.848 51.1843 37.254C51.9383 37.66 52.4989 38.2787 52.8663 39.11C53.2336 39.922 53.4173 40.9563 53.4173 42.213V49.985C53.4173 50.3717 53.3109 50.6713 53.0983 50.884C52.9049 51.0967 52.6246 51.203 52.2573 51.203C51.8706 51.203 51.5709 51.0967 51.3583 50.884C51.1649 50.6713 51.0683 50.3717 51.0683 49.985V42.358C51.0683 41.0433 50.8073 40.0863 50.2853 39.487C49.7826 38.8683 48.9706 38.559 47.8493 38.559C46.5539 38.559 45.5196 38.965 44.7463 39.777C43.9923 40.5697 43.6153 41.633 43.6153 42.967V49.985C43.6153 50.797 43.2189 51.203 42.4263 51.203ZM59.2857 51C58.899 51 58.5993 50.8937 58.3867 50.681C58.174 50.449 58.0677 50.1397 58.0677 49.753V31.657C58.0677 31.251 58.1643 30.9417 58.3577 30.729C58.5703 30.5163 58.87 30.41 59.2567 30.41C59.6433 30.41 59.9333 30.5163 60.1267 30.729C60.3393 30.9417 60.4457 31.251 60.4457 31.657V48.912H69.9577C70.3057 48.912 70.5763 49.0087 70.7697 49.202C70.963 49.376 71.0597 49.6273 71.0597 49.956C71.0597 50.2847 70.963 50.5457 70.7697 50.739C70.5763 50.913 70.3057 51 69.9577 51H59.2857ZM74.6548 51.145C74.2681 51.145 73.9781 51.0387 73.7848 50.826C73.5914 50.594 73.4948 50.275 73.4948 49.869V38.008C73.4948 37.602 73.5914 37.2927 73.7848 37.08C73.9781 36.8673 74.2681 36.761 74.6548 36.761C75.0221 36.761 75.3121 36.8673 75.5248 37.08C75.7374 37.2927 75.8438 37.602 75.8438 38.008V49.869C75.8438 50.275 75.7374 50.594 75.5248 50.826C75.3314 51.0387 75.0414 51.145 74.6548 51.145ZM74.6548 33.513C74.1714 33.513 73.7944 33.3873 73.5238 33.136C73.2531 32.8653 73.1178 32.5077 73.1178 32.063C73.1178 31.599 73.2531 31.251 73.5238 31.019C73.7944 30.7677 74.1714 30.642 74.6548 30.642C75.1574 30.642 75.5344 30.7677 75.7858 31.019C76.0564 31.251 76.1918 31.599 76.1918 32.063C76.1918 32.5077 76.0564 32.8653 75.7858 33.136C75.5344 33.3873 75.1574 33.513 74.6548 33.513ZM85.484 51.203C85.1553 51.203 84.8653 51.116 84.614 50.942C84.3627 50.7487 84.15 50.4587 83.976 50.072L78.959 38.356C78.8237 38.066 78.7753 37.7953 78.814 37.544C78.8527 37.2927 78.9687 37.0897 79.162 36.935C79.3553 36.7803 79.626 36.703 79.974 36.703C80.2833 36.703 80.525 36.7707 80.699 36.906C80.873 37.0413 81.0277 37.283 81.163 37.631L85.919 49.26H85.136L89.979 37.631C90.1143 37.283 90.269 37.0413 90.443 36.906C90.617 36.7707 90.8683 36.703 91.197 36.703C91.5063 36.703 91.7383 36.7803 91.893 36.935C92.067 37.0897 92.1637 37.2927 92.183 37.544C92.2217 37.776 92.183 38.037 92.067 38.327L86.992 50.072C86.8567 50.4587 86.6537 50.7487 86.383 50.942C86.1317 51.116 85.832 51.203 85.484 51.203ZM101.313 51.261C99.8239 51.261 98.5382 50.971 97.4556 50.391C96.3922 49.7917 95.5609 48.9507 94.9616 47.868C94.3816 46.7853 94.0916 45.49 94.0916 43.982C94.0916 42.5127 94.3816 41.2367 94.9616 40.154C95.5416 39.052 96.3342 38.1917 97.3396 37.573C98.3642 36.9543 99.5436 36.645 100.878 36.645C101.825 36.645 102.676 36.8093 103.43 37.138C104.184 37.4473 104.822 37.9017 105.344 38.501C105.885 39.1003 106.291 39.8253 106.562 40.676C106.852 41.5267 106.997 42.4837 106.997 43.547C106.997 43.8563 106.91 44.0883 106.736 44.243C106.562 44.3783 106.31 44.446 105.982 44.446H95.8896V42.909H105.431L104.967 43.286C104.967 42.242 104.812 41.3623 104.503 40.647C104.193 39.9123 103.739 39.3517 103.14 38.965C102.56 38.5783 101.825 38.385 100.936 38.385C99.9496 38.385 99.1086 38.617 98.4126 39.081C97.7359 39.5257 97.2236 40.154 96.8756 40.966C96.5276 41.7587 96.3536 42.6867 96.3536 43.75V43.924C96.3536 45.7027 96.7789 47.056 97.6296 47.984C98.4996 48.912 99.7272 49.376 101.313 49.376C101.97 49.376 102.618 49.289 103.256 49.115C103.913 48.941 104.551 48.651 105.17 48.245C105.44 48.071 105.682 47.9937 105.895 48.013C106.127 48.013 106.31 48.0807 106.446 48.216C106.581 48.332 106.668 48.4867 106.707 48.68C106.765 48.854 106.745 49.0473 106.649 49.26C106.571 49.4727 106.407 49.6563 106.156 49.811C105.518 50.275 104.764 50.6327 103.894 50.884C103.024 51.1353 102.163 51.261 101.313 51.261Z" fill="#29C195"/>
<path d="M24.997 50.681L24.6285 51.0189L24.6431 51.0349L24.6592 51.0496L24.997 50.681ZM24.997 30.903L25.3506 31.2566L25.3506 31.2566L24.997 30.903ZM26.998 32.556V32.056H26.498V32.556H26.998ZM26.998 39.632H26.498V40.132H26.998V39.632ZM36.916 39.893L36.5625 40.2466L36.5729 40.2569L36.5838 40.2667L36.916 39.893ZM26.998 41.633V41.133H26.498V41.633H26.998ZM26.998 48.999H26.498V49.499H26.998V48.999ZM37.525 49.26L37.1715 49.6136L37.1715 49.6136L37.525 49.26ZM25.983 50.5C25.6382 50.5 25.4464 50.4146 25.3349 50.3124L24.6592 51.0496C25.0117 51.3727 25.4772 51.5 25.983 51.5V50.5ZM25.3656 50.3431C25.2634 50.2317 25.178 50.0399 25.178 49.695H24.178C24.178 50.2008 24.3053 50.6663 24.6285 51.0189L25.3656 50.3431ZM25.178 49.695V31.86H24.178V49.695H25.178ZM25.178 31.86C25.178 31.5117 25.2648 31.3424 25.3506 31.2566L24.6435 30.5494C24.304 30.889 24.178 31.3576 24.178 31.86H25.178ZM25.3506 31.2566C25.4633 31.1438 25.6493 31.055 25.983 31.055V30.055C25.4661 30.055 24.9947 30.1982 24.6435 30.5494L25.3506 31.2566ZM25.983 31.055H36.771V30.055H25.983V31.055ZM36.771 31.055C37.013 31.055 37.1194 31.1175 37.1715 31.1696L37.8786 30.4624C37.5827 30.1665 37.1863 30.055 36.771 30.055V31.055ZM37.1715 31.1696C37.229 31.2271 37.286 31.3283 37.286 31.541H38.286C38.286 31.135 38.169 30.7529 37.8786 30.4624L37.1715 31.1696ZM37.286 31.541C37.286 31.783 37.2236 31.8894 37.1715 31.9414L37.8786 32.6486C38.1745 32.3526 38.286 31.9563 38.286 31.541H37.286ZM37.1715 31.9414C37.1194 31.9935 37.013 32.056 36.771 32.056V33.056C37.1863 33.056 37.5827 32.9445 37.8786 32.6486L37.1715 31.9414ZM36.771 32.056H26.998V33.056H36.771V32.056ZM26.498 32.556V39.632H27.498V32.556H26.498ZM26.998 40.132H36.162V39.132H26.998V40.132ZM36.162 40.132C36.404 40.132 36.5104 40.1945 36.5625 40.2466L37.2696 39.5394C36.9737 39.2435 36.5773 39.132 36.162 39.132V40.132ZM36.5838 40.2667C36.6129 40.2925 36.677 40.3715 36.677 40.618H37.677C37.677 40.2071 37.5672 39.8028 37.2482 39.5193L36.5838 40.2667ZM36.677 40.618C36.677 40.86 36.6146 40.9664 36.5625 41.0184L37.2696 41.7256C37.5655 41.4296 37.677 41.0333 37.677 40.618H36.677ZM36.5625 41.0184C36.5104 41.0705 36.404 41.133 36.162 41.133V42.133C36.5773 42.133 36.9737 42.0215 37.2696 41.7256L36.5625 41.0184ZM36.162 41.133H26.998V42.133H36.162V41.133ZM26.498 41.633V48.999H27.498V41.633H26.498ZM26.998 49.499H36.771V48.499H26.998V49.499ZM36.771 49.499C37.013 49.499 37.1194 49.5615 37.1715 49.6136L37.8786 48.9064C37.5827 48.6105 37.1863 48.499 36.771 48.499V49.499ZM37.1715 49.6136C37.229 49.6711 37.286 49.7723 37.286 49.985H38.286C38.286 49.579 38.169 49.1969 37.8786 48.9064L37.1715 49.6136ZM37.286 49.985C37.286 50.227 37.2236 50.3334 37.1715 50.3854L37.8786 51.0926C38.1745 50.7966 38.286 50.4003 38.286 49.985H37.286ZM37.1715 50.3854C37.1194 50.4375 37.013 50.5 36.771 50.5V51.5C37.1863 51.5 37.5827 51.3885 37.8786 51.0926L37.1715 50.3854ZM36.771 50.5H25.983V51.5H36.771V50.5ZM41.5563 37.022L41.9098 37.3756L41.9182 37.3671L41.9262 37.3583L41.5563 37.022ZM43.2383 37.022L42.8683 37.3583L42.8843 37.376L42.9019 37.392L43.2383 37.022ZM43.5573 40.386L43.1887 40.7239L44.0573 41.6714V40.386H43.5573ZM43.2383 40.038L42.7681 39.8678L42.665 40.1526L42.8697 40.3759L43.2383 40.038ZM45.2103 37.515L45.4728 37.9405L45.4753 37.939L45.2103 37.515ZM51.1843 37.254L50.9424 37.6916L50.9472 37.6942L51.1843 37.254ZM52.8663 39.11L52.4089 39.3121L52.4107 39.3161L52.8663 39.11ZM53.0983 50.884L52.7447 50.5304L52.7363 50.5389L52.7283 50.5477L53.0983 50.884ZM51.3583 50.884L50.9883 51.2203L50.9963 51.2291L51.0047 51.2376L51.3583 50.884ZM50.2853 39.487L49.8972 39.8023L49.9026 39.8089L49.9082 39.8154L50.2853 39.487ZM44.7463 39.777L44.3842 39.4322L44.384 39.4324L44.7463 39.777ZM42.4263 50.703C42.1296 50.703 41.9953 50.6236 41.9262 50.5477L41.1863 51.2203C41.5039 51.5697 41.9496 51.703 42.4263 51.703V50.703ZM41.9262 50.5477C41.8419 50.4549 41.7663 50.2909 41.7663 49.985H40.7663C40.7663 50.4524 40.884 50.8878 41.1863 51.2203L41.9262 50.5477ZM41.7663 49.985V37.892H40.7663V49.985H41.7663ZM41.7663 37.892C41.7663 37.5824 41.8433 37.442 41.9098 37.3756L41.2027 36.6684C40.8825 36.9886 40.7663 37.4283 40.7663 37.892H41.7663ZM41.9262 37.3583C42 37.2772 42.1291 37.203 42.3973 37.203V36.203C41.9308 36.203 41.4992 36.3414 41.1863 36.6857L41.9262 37.3583ZM42.3973 37.203C42.6654 37.203 42.7945 37.2772 42.8683 37.3583L43.6082 36.6857C43.2953 36.3414 42.8638 36.203 42.3973 36.203V37.203ZM42.9019 37.392C42.9779 37.461 43.0573 37.5953 43.0573 37.892H44.0573C44.0573 37.4153 43.924 36.9697 43.5746 36.652L42.9019 37.392ZM43.0573 37.892V40.386H44.0573V37.892H43.0573ZM43.9258 40.0481L43.6068 39.7001L42.8697 40.3759L43.1887 40.7239L43.9258 40.0481ZM43.7084 40.2082C44.0807 39.1798 44.6714 38.435 45.4728 37.9405L44.9477 37.0895C43.9318 37.7163 43.2078 38.6535 42.7681 39.8678L43.7084 40.2082ZM45.4753 37.939C46.3163 37.4134 47.286 37.145 48.4003 37.145V36.145C47.1171 36.145 45.9602 36.4566 44.9453 37.091L45.4753 37.939ZM48.4003 37.145C49.4643 37.145 50.3025 37.338 50.9424 37.6916L51.4261 36.8164C50.5967 36.358 49.5788 36.145 48.4003 36.145V37.145ZM50.9472 37.6942C51.5971 38.0442 52.0836 38.5757 52.4089 39.3121L53.3236 38.9079C52.9143 37.9816 52.2794 37.2758 51.4213 36.8138L50.9472 37.6942ZM52.4107 39.3161C52.7393 40.0425 52.9173 41.0003 52.9173 42.213H53.9173C53.9173 40.9124 53.7279 39.8015 53.3218 38.9039L52.4107 39.3161ZM52.9173 42.213V49.985H53.9173V42.213H52.9173ZM52.9173 49.985C52.9173 50.2787 52.8389 50.4363 52.7447 50.5304L53.4518 51.2376C53.783 50.9064 53.9173 50.4646 53.9173 49.985H52.9173ZM52.7283 50.5477C52.6545 50.6288 52.5254 50.703 52.2573 50.703V51.703C52.7238 51.703 53.1553 51.5646 53.4682 51.2203L52.7283 50.5477ZM52.2573 50.703C51.9636 50.703 51.806 50.6246 51.7118 50.5304L51.0047 51.2376C51.3359 51.5687 51.7776 51.703 52.2573 51.703V50.703ZM51.7282 50.5477C51.6439 50.4549 51.5683 50.2909 51.5683 49.985H50.5683C50.5683 50.4524 50.686 50.8878 50.9883 51.2203L51.7282 50.5477ZM51.5683 49.985V42.358H50.5683V49.985H51.5683ZM51.5683 42.358C51.5683 40.9961 51.3013 39.8922 50.6623 39.1586L49.9082 39.8154C50.3133 40.2804 50.5683 41.0906 50.5683 42.358H51.5683ZM50.6733 39.1717C50.0415 38.3941 49.057 38.059 47.8493 38.059V39.059C48.8842 39.059 49.5237 39.3426 49.8972 39.8023L50.6733 39.1717ZM47.8493 38.059C46.4403 38.059 45.2668 38.5055 44.3842 39.4322L45.1083 40.1218C45.7724 39.4245 46.6676 39.059 47.8493 39.059V38.059ZM44.384 39.4324C43.523 40.3375 43.1153 41.5345 43.1153 42.967H44.1153C44.1153 41.7315 44.4615 40.8018 45.1085 40.1216L44.384 39.4324ZM43.1153 42.967V49.985H44.1153V42.967H43.1153ZM43.1153 49.985C43.1153 50.3169 43.0342 50.4734 42.9602 50.5492C42.8884 50.6228 42.7424 50.703 42.4263 50.703V51.703C42.9028 51.703 43.3513 51.5802 43.6758 51.2478C43.9981 50.9176 44.1153 50.4651 44.1153 49.985H43.1153ZM58.3867 50.681L58.0181 51.0189L58.0254 51.0269L58.0331 51.0346L58.3867 50.681ZM58.3577 30.729L58.0041 30.3754L57.9957 30.3839L57.9877 30.3927L58.3577 30.729ZM60.1267 30.729L59.7567 31.0653L59.7647 31.0741L59.7731 31.0826L60.1267 30.729ZM60.4457 48.912H59.9457V49.412H60.4457V48.912ZM70.7697 49.202L70.4161 49.5556L70.4254 49.5649L70.4352 49.5736L70.7697 49.202ZM70.7697 50.739L71.1042 51.1106L71.1139 51.1019L71.1232 51.0926L70.7697 50.739ZM59.2857 50.5C58.992 50.5 58.8344 50.4216 58.7402 50.3274L58.0331 51.0346C58.3643 51.3657 58.806 51.5 59.2857 51.5V50.5ZM58.7553 50.3431C58.6454 50.2233 58.5677 50.0446 58.5677 49.753H57.5677C57.5677 50.2348 57.7026 50.6747 58.0181 51.0189L58.7553 50.3431ZM58.5677 49.753V31.657H57.5677V49.753H58.5677ZM58.5677 31.657C58.5677 31.3242 58.647 31.1541 58.7276 31.0653L57.9877 30.3927C57.6817 30.7293 57.5677 31.1778 57.5677 31.657H58.5677ZM58.7112 31.0826C58.8054 30.9884 58.963 30.91 59.2567 30.91V29.91C58.777 29.91 58.3353 30.0443 58.0041 30.3754L58.7112 31.0826ZM59.2567 30.91C59.5533 30.91 59.6877 30.9894 59.7567 31.0653L60.4966 30.3927C60.179 30.0433 59.7333 29.91 59.2567 29.91V30.91ZM59.7731 31.0826C59.8629 31.1724 59.9457 31.3359 59.9457 31.657H60.9457C60.9457 31.1661 60.8157 30.711 60.4802 30.3754L59.7731 31.0826ZM59.9457 31.657V48.912H60.9457V31.657H59.9457ZM60.4457 49.412H69.9577V48.412H60.4457V49.412ZM69.9577 49.412C70.2111 49.412 70.3404 49.4798 70.4161 49.5556L71.1232 48.8484C70.8123 48.5375 70.4003 48.412 69.9577 48.412V49.412ZM70.4352 49.5736C70.4967 49.629 70.5597 49.7291 70.5597 49.956H71.5597C71.5597 49.5256 71.4293 49.123 71.1042 48.8304L70.4352 49.5736ZM70.5597 49.956C70.5597 50.1807 70.4972 50.3044 70.4161 50.3854L71.1232 51.0926C71.4288 50.787 71.5597 50.3886 71.5597 49.956H70.5597ZM70.4352 50.3674C70.3609 50.4342 70.2246 50.5 69.9577 50.5V51.5C70.3868 51.5 70.7917 51.3918 71.1042 51.1106L70.4352 50.3674ZM69.9577 50.5H59.2857V51.5H69.9577V50.5ZM73.7848 50.826L73.4007 51.1461L73.4076 51.1544L73.4148 51.1623L73.7848 50.826ZM75.5248 37.08L75.8783 36.7264L75.8783 36.7264L75.5248 37.08ZM75.5248 50.826L75.1562 50.4881L75.1548 50.4897L75.5248 50.826ZM73.5238 33.136L73.1702 33.4896L73.1768 33.4961L73.1835 33.5024L73.5238 33.136ZM73.5238 31.019L73.8492 31.3986L73.8567 31.3922L73.864 31.3854L73.5238 31.019ZM75.7858 31.019L75.4322 31.3726L75.4458 31.3861L75.4604 31.3986L75.7858 31.019ZM75.7858 33.136L75.4322 32.7824L75.4322 32.7824L75.7858 33.136ZM74.6548 50.645C74.3581 50.645 74.2238 50.5656 74.1547 50.4897L73.4148 51.1623C73.7324 51.5117 74.1781 51.645 74.6548 51.645V50.645ZM74.1689 50.5059C74.0728 50.3906 73.9948 50.1985 73.9948 49.869H72.9948C72.9948 50.3515 73.1101 50.7974 73.4007 51.1461L74.1689 50.5059ZM73.9948 49.869V38.008H72.9948V49.869H73.9948ZM73.9948 38.008C73.9948 37.6752 74.0741 37.5051 74.1547 37.4163L73.4148 36.7437C73.1088 37.0803 72.9948 37.5288 72.9948 38.008H73.9948ZM74.1547 37.4163C74.2238 37.3404 74.3581 37.261 74.6548 37.261V36.261C74.1781 36.261 73.7324 36.3943 73.4148 36.7437L74.1547 37.4163ZM74.6548 37.261C74.9207 37.261 75.0723 37.3346 75.1712 37.4336L75.8783 36.7264C75.5519 36.4 75.1235 36.261 74.6548 36.261V37.261ZM75.1712 37.4336C75.261 37.5234 75.3438 37.6869 75.3438 38.008H76.3438C76.3438 37.5171 76.2138 37.062 75.8783 36.7264L75.1712 37.4336ZM75.3438 38.008V49.869H76.3438V38.008H75.3438ZM75.3438 49.869C75.3438 50.1873 75.2621 50.3727 75.1562 50.4881L75.8933 51.1639C76.2128 50.8153 76.3438 50.3627 76.3438 49.869H75.3438ZM75.1548 50.4897C75.0858 50.5656 74.9514 50.645 74.6548 50.645V51.645C75.1314 51.645 75.5771 51.5117 75.8947 51.1623L75.1548 50.4897ZM74.6548 33.013C74.2576 33.013 74.0165 32.9112 73.864 32.7696L73.1835 33.5024C73.5724 33.8634 74.0853 34.013 74.6548 34.013V33.013ZM73.8773 32.7824C73.7156 32.6208 73.6178 32.3982 73.6178 32.063H72.6178C72.6178 32.6171 72.7906 33.1099 73.1702 33.4896L73.8773 32.7824ZM73.6178 32.063C73.6178 31.6979 73.7206 31.5088 73.8492 31.3986L73.1984 30.6394C72.7856 30.9932 72.6178 31.5001 72.6178 32.063H73.6178ZM73.864 31.3854C74.0165 31.2438 74.2576 31.142 74.6548 31.142V30.142C74.0853 30.142 73.5724 30.2916 73.1835 30.6526L73.864 31.3854ZM74.6548 31.142C75.0804 31.142 75.3077 31.2481 75.4322 31.3726L76.1393 30.6654C75.7612 30.2873 75.2345 30.142 74.6548 30.142V31.142ZM75.4604 31.3986C75.5889 31.5088 75.6918 31.6979 75.6918 32.063H76.6918C76.6918 31.5001 76.524 30.9932 76.1112 30.6394L75.4604 31.3986ZM75.6918 32.063C75.6918 32.3982 75.5939 32.6208 75.4322 32.7824L76.1393 33.4896C76.519 33.1099 76.6918 32.6171 76.6918 32.063H75.6918ZM75.4322 32.7824C75.3077 32.9069 75.0804 33.013 74.6548 33.013V34.013C75.2345 34.013 75.7612 33.8677 76.1393 33.4896L75.4322 32.7824ZM84.614 50.942L84.3092 51.3383L84.3191 51.346L84.3294 51.3531L84.614 50.942ZM83.976 50.072L83.5163 50.2689L83.52 50.2772L83.976 50.072ZM78.959 38.356L79.4186 38.1592L79.4155 38.1518L79.4121 38.1446L78.959 38.356ZM78.814 37.544L79.3082 37.62L79.3082 37.62L78.814 37.544ZM79.162 36.935L79.4744 37.3254L79.4744 37.3254L79.162 36.935ZM80.699 36.906L81.006 36.5113L81.006 36.5113L80.699 36.906ZM81.163 37.631L80.6969 37.8122L80.7002 37.8203L81.163 37.631ZM85.919 49.26V49.76H86.6637L86.3818 49.0707L85.919 49.26ZM85.136 49.26L84.6744 49.0678L84.3861 49.76H85.136V49.26ZM89.979 37.631L90.4407 37.8233L90.445 37.8122L89.979 37.631ZM90.443 36.906L90.75 37.3007L90.75 37.3007L90.443 36.906ZM91.893 36.935L91.5395 37.2886L91.5498 37.2989L91.5608 37.3087L91.893 36.935ZM92.183 37.544L91.6845 37.5823L91.6862 37.6044L91.6898 37.6262L92.183 37.544ZM92.067 38.327L92.5262 38.5254L92.5312 38.5127L92.067 38.327ZM86.992 50.072L86.533 49.8737L86.526 49.89L86.5201 49.9068L86.992 50.072ZM86.383 50.942L86.6676 51.3531L86.6736 51.3489L86.383 50.942ZM85.484 50.703C85.249 50.703 85.0599 50.6426 84.8986 50.5309L84.3294 51.3531C84.6707 51.5894 85.0617 51.703 85.484 51.703V50.703ZM84.9189 50.5457C84.7512 50.4167 84.5831 50.2026 84.432 49.8668L83.52 50.2772C83.7169 50.7147 83.9741 51.0806 84.3092 51.3383L84.9189 50.5457ZM84.4356 49.8752L79.4186 38.1592L78.4994 38.5528L83.5164 50.2688L84.4356 49.8752ZM79.4121 38.1446C79.3078 37.921 79.288 37.751 79.3082 37.62L78.3198 37.468C78.2626 37.8396 78.3396 38.211 78.5059 38.5674L79.4121 38.1446ZM79.3082 37.62C79.3284 37.4889 79.3818 37.3995 79.4744 37.3254L78.8497 36.5446C78.5556 36.7798 78.377 37.0965 78.3198 37.468L79.3082 37.62ZM79.4744 37.3254C79.5492 37.2656 79.6943 37.203 79.974 37.203V36.203C79.5577 36.203 79.1615 36.2951 78.8497 36.5446L79.4744 37.3254ZM79.974 37.203C80.2161 37.203 80.3351 37.2564 80.392 37.3007L81.006 36.5113C80.7149 36.2849 80.3506 36.203 79.974 36.203V37.203ZM80.392 37.3007C80.461 37.3543 80.5743 37.4968 80.697 37.8122L81.629 37.4498C81.481 37.0692 81.2851 36.7284 81.006 36.5113L80.392 37.3007ZM80.7002 37.8203L85.4562 49.4493L86.3818 49.0707L81.6258 37.4417L80.7002 37.8203ZM85.919 48.76H85.136V49.76H85.919V48.76ZM85.5976 49.4522L90.4406 37.8232L89.5174 37.4388L84.6744 49.0678L85.5976 49.4522ZM90.445 37.8122C90.5677 37.4968 90.6811 37.3543 90.75 37.3007L90.136 36.5113C89.857 36.7284 89.661 37.0692 89.513 37.4498L90.445 37.8122ZM90.75 37.3007C90.8024 37.2599 90.9273 37.203 91.197 37.203V36.203C90.8094 36.203 90.4316 36.2814 90.136 36.5113L90.75 37.3007ZM91.197 37.203C91.4293 37.203 91.5116 37.2607 91.5395 37.2886L92.2466 36.5814C91.9651 36.2999 91.5834 36.203 91.197 36.203V37.203ZM91.5608 37.3087C91.6296 37.3698 91.6742 37.4484 91.6845 37.5823L92.6815 37.5057C92.6532 37.1369 92.5044 36.8095 92.2252 36.5613L91.5608 37.3087ZM91.6898 37.6262C91.7093 37.7429 91.6956 37.9092 91.6028 38.1413L92.5312 38.5127C92.6704 38.1648 92.7341 37.8091 92.6762 37.4618L91.6898 37.6262ZM91.608 38.1287L86.533 49.8737L87.451 50.2703L92.526 38.5253L91.608 38.1287ZM86.5201 49.9068C86.4108 50.219 86.2614 50.4144 86.0924 50.5351L86.6736 51.3489C87.0459 51.0829 87.3025 50.6983 87.4639 50.2372L86.5201 49.9068ZM86.0984 50.5309C85.9419 50.6392 85.7449 50.703 85.484 50.703V51.703C85.9191 51.703 86.3214 51.5928 86.6676 51.3531L86.0984 50.5309ZM97.4556 50.391L97.21 50.8267L97.2195 50.8317L97.4556 50.391ZM94.9616 47.868L94.5208 48.1041L94.5241 48.1102L94.9616 47.868ZM94.9616 40.154L95.4023 40.3901L95.404 40.3869L94.9616 40.154ZM97.3396 37.573L97.0811 37.145L97.0775 37.1472L97.3396 37.573ZM103.43 37.138L103.23 37.5965L103.24 37.6006L103.43 37.138ZM105.344 38.501L104.966 38.8294L104.973 38.8361L105.344 38.501ZM106.562 40.676L106.085 40.8276L106.088 40.8373L106.562 40.676ZM106.736 44.243L107.043 44.6377L107.055 44.6276L107.068 44.6167L106.736 44.243ZM95.8896 44.446H95.3896V44.946H95.8896V44.446ZM95.8896 42.909V42.409H95.3896V42.909H95.8896ZM105.431 42.909L105.746 43.2971L106.839 42.409H105.431V42.909ZM104.967 43.286H104.467V44.3365L105.282 43.6741L104.967 43.286ZM104.503 40.647L104.042 40.841L104.044 40.8455L104.503 40.647ZM103.14 38.965L102.862 39.3811L102.869 39.3851L103.14 38.965ZM98.4126 39.081L98.6872 39.4989L98.6899 39.497L98.4126 39.081ZM96.8756 40.966L97.3334 41.167L97.3351 41.163L96.8756 40.966ZM97.6296 47.984L97.261 48.3219L97.2648 48.326L97.6296 47.984ZM103.256 49.115L103.128 48.6316L103.124 48.6326L103.256 49.115ZM105.17 48.245L104.899 47.8244L104.895 47.827L105.17 48.245ZM105.895 48.013L105.849 48.5109L105.872 48.513H105.895V48.013ZM106.446 48.216L106.092 48.5696L106.106 48.5831L106.12 48.5956L106.446 48.216ZM106.707 48.68L106.216 48.7781L106.222 48.8086L106.232 48.8381L106.707 48.68ZM106.649 49.26L106.193 49.0531L106.185 49.0708L106.179 49.0891L106.649 49.26ZM106.156 49.811L105.894 49.3852L105.877 49.3953L105.861 49.4066L106.156 49.811ZM103.894 50.884L103.755 50.4036L103.755 50.4036L103.894 50.884ZM101.313 50.761C99.889 50.761 98.6879 50.4839 97.6917 49.9503L97.2195 50.8317C98.3886 51.4581 99.7588 51.761 101.313 51.761V50.761ZM97.7011 49.9554C96.7196 49.4022 95.9542 48.6287 95.399 47.6258L94.5241 48.1102C95.1676 49.2726 96.0649 50.1811 97.2101 50.8266L97.7011 49.9554ZM95.4023 47.6319C94.8691 46.6366 94.5916 45.4261 94.5916 43.982H93.5916C93.5916 45.5538 93.894 46.9341 94.5208 48.1041L95.4023 47.6319ZM94.5916 43.982C94.5916 42.5789 94.8682 41.3872 95.4023 40.3901L94.5208 39.9179C93.895 41.0862 93.5916 42.4464 93.5916 43.982H94.5916ZM95.404 40.3869C95.9447 39.3597 96.6769 38.5679 97.6016 37.9988L97.0775 37.1472C95.9916 37.8154 95.1385 38.7443 94.5191 39.9211L95.404 40.3869ZM97.598 38.001C98.536 37.4347 99.6239 37.145 100.878 37.145V36.145C99.4632 36.145 98.1925 36.474 97.0811 37.145L97.598 38.001ZM100.878 37.145C101.767 37.145 102.548 37.299 103.23 37.5963L103.629 36.6797C102.803 36.3197 101.883 36.145 100.878 36.145V37.145ZM103.24 37.6006C103.924 37.8811 104.497 38.2903 104.967 38.8294L105.721 38.1726C105.146 37.5131 104.443 37.0135 103.619 36.6754L103.24 37.6006ZM104.973 38.8361C105.461 39.3772 105.834 40.0377 106.085 40.8276L107.038 40.5244C106.748 39.6129 106.309 38.8235 105.715 38.1659L104.973 38.8361ZM106.088 40.8373C106.358 41.6275 106.497 42.5288 106.497 43.547H107.497C107.497 42.4386 107.345 41.4258 107.035 40.5147L106.088 40.8373ZM106.497 43.547C106.497 43.763 106.439 43.8381 106.403 43.8693L107.068 44.6167C107.381 44.3386 107.497 43.9497 107.497 43.547H106.497ZM106.429 43.8483C106.376 43.8891 106.251 43.946 105.982 43.946V44.946C106.369 44.946 106.747 44.8676 107.043 44.6377L106.429 43.8483ZM105.982 43.946H95.8896V44.946H105.982V43.946ZM96.3896 44.446V42.909H95.3896V44.446H96.3896ZM95.8896 43.409H105.431V42.409H95.8896V43.409ZM105.115 42.5209L104.651 42.8979L105.282 43.6741L105.746 43.2971L105.115 42.5209ZM105.467 43.286C105.467 42.1957 105.305 41.2439 104.961 40.4485L104.044 40.8455C104.318 41.4807 104.467 42.2883 104.467 43.286H105.467ZM104.963 40.453C104.62 39.6369 104.104 38.9924 103.411 38.5449L102.869 39.3851C103.373 39.7109 103.767 40.1878 104.042 40.841L104.963 40.453ZM103.417 38.549C102.735 38.0942 101.897 37.885 100.936 37.885V38.885C101.753 38.885 102.384 39.0624 102.862 39.381L103.417 38.549ZM100.936 37.885C99.8689 37.885 98.9272 38.137 98.1352 38.665L98.6899 39.497C99.29 39.097 100.03 38.885 100.936 38.885V37.885ZM98.138 38.6631C97.3719 39.1666 96.799 39.8754 96.416 40.769L97.3351 41.163C97.6482 40.4326 98.0999 39.8847 98.6872 39.4989L98.138 38.6631ZM96.4177 40.765C96.0363 41.6337 95.8536 42.6329 95.8536 43.75H96.8536C96.8536 42.7405 97.0188 41.8836 97.3334 41.167L96.4177 40.765ZM95.8536 43.75V43.924H96.8536V43.75H95.8536ZM95.8536 43.924C95.8536 45.7762 96.2964 47.2696 97.261 48.3219L97.9981 47.6461C97.2614 46.8424 96.8536 45.6291 96.8536 43.924H95.8536ZM97.2648 48.326C98.2516 49.3786 99.6254 49.876 101.313 49.876V48.876C99.8291 48.876 98.7475 48.4454 97.9943 47.642L97.2648 48.326ZM101.313 49.876C102.015 49.876 102.707 49.783 103.387 49.5974L103.124 48.6326C102.529 48.795 101.925 48.876 101.313 48.876V49.876ZM103.384 49.5984C104.097 49.4094 104.784 49.0959 105.444 48.663L104.895 47.827C104.318 48.2061 103.729 48.4726 103.128 48.6316L103.384 49.5984ZM105.44 48.6656C105.662 48.5227 105.791 48.5057 105.849 48.5109L105.94 47.5151C105.573 47.4817 105.218 47.6193 104.899 47.8244L105.44 48.6656ZM105.895 48.513C106.024 48.513 106.07 48.5473 106.092 48.5696L106.799 47.8624C106.551 47.6141 106.229 47.513 105.895 47.513V48.513ZM106.12 48.5956C106.162 48.6311 106.197 48.682 106.216 48.7781L107.197 48.5819C107.139 48.2913 107 48.0329 106.771 47.8364L106.12 48.5956ZM106.232 48.8381C106.24 48.8622 106.253 48.9227 106.193 49.0531L107.104 49.4669C107.238 49.172 107.289 48.8458 107.181 48.5219L106.232 48.8381ZM106.179 49.0891C106.15 49.1673 106.078 49.2715 105.894 49.3852L106.418 50.2368C106.736 50.0412 106.992 49.778 107.118 49.4309L106.179 49.0891ZM105.861 49.4066C105.277 49.8318 104.577 50.1661 103.755 50.4036L104.032 51.3644C104.95 51.0993 105.758 50.7182 106.45 50.2154L105.861 49.4066ZM103.755 50.4036C102.927 50.6428 102.113 50.761 101.313 50.761V51.761C102.213 51.761 103.12 51.6279 104.032 51.3644L103.755 50.4036Z" fill="#29C195"/>
</svg>
