<svg data-name="Layer 1" viewBox="0 0 256 256" xmlns="http://www.w3.org/2000/svg"><path d="M63 25a2 2 0 0 1 2-2h126a2 2 0 0 1 2 2v23h11V20a8 8 0 0 0-8-8H65a8 8 0 0 0-8 8v28h6Z" fill="#40bdff" class="fill-40bdff"></path><path d="M236 52H25a8 8 0 0 0-8 8v54a12 12 0 0 0 12 12h77.09v-.44a22 22 0 0 1 43.72 0v.44H232a12 12 0 0 0 12-12V60a8 8 0 0 0-8-8Z" fill="#36e4ff" class="fill-ffdd00"></path><path d="M236 52h-5a8 8 0 0 1 8 8v54a12 12 0 0 1-12 12h5a12 12 0 0 0 12-12V60a8 8 0 0 0-8-8Z" fill="#05c8eb" class="fill-efc803"></path><path d="M204 138v-8h-16v8a8 8 0 0 0 16 0ZM128 110a18.09 18.09 0 0 0-17.82 15.43l-.08.57h35.8l-.08-.57A18.09 18.09 0 0 0 128 110Z" fill="#eb5639" class="fill-eb5639"></path><path d="M174.47 160.08A42 42 0 0 0 135.05 200h12.77a2 2 0 0 1 0 4h-12.77c1.29 21.8 17.48 38.62 39.95 39.95v-12.77a2 2 0 0 1 4 0v12.77c22.39-1.32 38.65-18.07 39.95-39.95h-12.77a2 2 0 0 1 0-4h12.77a42 42 0 0 0-39.42-39.92H179v12.77a2 2 0 0 1-4 0v-12.8Zm13.21 54.84a2 2 0 0 1-.6 2.76 2 2 0 0 1-2.76-.6l-9-14A2 2 0 0 1 175 202v-19.18a2 2 0 1 1 4 0v18.59Z" fill="#36e4ff" class="fill-ffdd00"></path><path d="M232 130h-24v8a12 12 0 0 1-24 0v-8H72v8a12 12 0 0 1-24 0v-8H29a15.91 15.91 0 0 1-11.15-4.55l-.85-.83V196a8 8 0 0 0 8 8h106v-.52a46 46 0 1 1 92-1.48v2h13a8 8 0 0 0 8-8v-71.38l-.85.83A15.91 15.91 0 0 1 232 130Z" fill="#40bdff" class="fill-40bdff"></path><path d="M243.15 125.45a16.09 16.09 0 0 1-4.15 2.92V196a8 8 0 0 1-8 8h5a8 8 0 0 0 8-8v-71.38Z" fill="#2197f7" class="fill-2197f7"></path><path d="M68 138v-8H52v8a8 8 0 0 0 16 0Z" fill="#eb5639" class="fill-eb5639"></path><path d="M196 12h-5a8 8 0 0 1 8 8v28h5V20a8 8 0 0 0-8-8Z" fill="#2197f7" class="fill-2197f7"></path><path d="M199 130v8a8 8 0 0 1-5.5 7.59A8 8 0 0 0 204 138v-8ZM145.82 125.43A18.09 18.09 0 0 0 128 110a17.73 17.73 0 0 0-2.5.2 18.09 18.09 0 0 1 15.32 15.23l.08.57h5Z" fill="#d84936" class="fill-d84936"></path><path d="M213.95 200h5a42 42 0 0 0-39.42-39.92H179v.55A42 42 0 0 1 213.95 200ZM179 243.37v.58c22.39-1.32 38.65-18.07 39.95-39.95h-5c-1.2 20.21-15.17 36-34.95 39.37Z" fill="#05c8eb" class="fill-efc803"></path><path d="M63 130v8a8 8 0 0 1-5.5 7.59A8 8 0 0 0 68 138v-8Z" fill="#d84936" class="fill-d84936"></path><path d="M236 47.5h-27.5V20A12.51 12.51 0 0 0 196 7.5H60A12.51 12.51 0 0 0 47.5 20v27.5H20A12.51 12.51 0 0 0 7.5 60v136A12.51 12.51 0 0 0 20 208.5h111a46.51 46.51 0 0 0 92.1 0h13a12.51 12.51 0 0 0 12.4-12.5V60A12.51 12.51 0 0 0 236 47.5ZM52.5 20a7.51 7.51 0 0 1 7.5-7.5h136a7.51 7.51 0 0 1 7.5 7.5v27.5h-10V25a2.5 2.5 0 0 0-2.5-2.5H65a2.5 2.5 0 0 0-2.5 2.5v22.5h-10Zm136 7.5v20h-121v-20Zm17.68 177h12.24a41.23 41.23 0 0 1-38.92 38.92v-12.24a2.5 2.5 0 0 0-5 0v12.24a41.23 41.23 0 0 1-38.92-38.92h12.24a2.5 2.5 0 0 0 0-5h-12.24a41.55 41.55 0 0 1 38.92-38.92v12.24a2.5 2.5 0 0 0 5 0v-12.24a41.55 41.55 0 0 1 38.92 38.92h-12.24a2.5 2.5 0 0 0 0 5Zm37.32-8.5a7.51 7.51 0 0 1-7.5 7.5h-12.52V202a46.5 46.5 0 1 0-93 1.5H20a7.51 7.51 0 0 1-7.5-7.5v-70.19A16.44 16.44 0 0 0 24 130.5h23.5v7.5a12.5 12.5 0 0 0 25 0v-7.5h111v7.5a12.5 12.5 0 0 0 25 0v-7.5H232a16.44 16.44 0 0 0 11.5-4.69Zm-191-58v-7.5h15v7.5a7.5 7.5 0 0 1-15 0Zm58.18-12.5a17.5 17.5 0 0 1 34.64 0ZM188.5 138v-7.5h15v7.5a7.5 7.5 0 0 1-15 0Zm55-24a11.51 11.51 0 0 1-11.5 11.5h-81.64a22.5 22.5 0 0 0-44.72 0H24A11.51 11.51 0 0 1 12.5 114V60a7.51 7.51 0 0 1 7.5-7.5h216a7.51 7.51 0 0 1 7.5 7.5Z" fill="#263238" class="fill-263238"></path><path d="M179.5 201.27v-18.45a2.5 2.5 0 1 0-5 0V202a2.5 2.5 0 0 0 .4 1.35l9 14a2.5 2.5 0 1 0 4.21-2.7Z" fill="#263238" class="fill-263238"></path><path d="M132 235h-4v-4a1 1 0 0 0-2 0v4h-4a1 1 0 1 0 0 2h4v4a1 1 0 0 0 2 0v-4h4a1 1 0 0 0 0-2ZM55 227.41h-4v-4a1 1 0 0 0-2 0v4h-4a1 1 0 0 0 0 2h4v4a1 1 0 0 0 2 0v-4h4a1 1 0 0 0 0-2Z" fill="#36e4ff" class="fill-ffdd00"></path><path d="M241 229h-2.59l1.83-1.83a1 1 0 0 0-1.41-1.41l-1.83 1.83V225a1 1 0 0 0-2 0v2.59l-1.83-1.83a1 1 0 0 0-1.41 1.41l1.83 1.83H231a1 1 0 0 0 0 2h2.59l-1.83 1.83a1 1 0 0 0 1.41 1.41l1.83-1.83V235a1 1 0 0 0 2 0v-2.59l1.83 1.83a1 1 0 0 0 1.41-1.41l-1.83-1.83H241a1 1 0 0 0 0-2ZM33.32 21.32h-4v-4a1 1 0 0 0-2 0v4h-4a1 1 0 0 0 0 2h4v4a1 1 0 1 0 2 0v-4h4a1 1 0 0 0 0-2ZM95.06 231.82a6 6 0 1 1 6-6 6 6 0 0 1-6 6Zm0-10a4 4 0 1 0 4 4 4 4 0 0 0-4-4Z" fill="#40bdff" class="fill-40bdff"></path><path d="M234 36a6 6 0 1 1 6-6 6 6 0 0 1-6 6Zm0-10a4 4 0 1 0 4 4 4 4 0 0 0-4-4Z" fill="#36e4ff" class="fill-ffdd00"></path></svg>