<svg viewBox="0 0 48 48" xmlns="http://www.w3.org/2000/svg"><rect height="48" rx="2" ry="2" width="34" x="8" fill="#557ee6" class="fill-4b6ea4"></rect><path d="M10 0h2v48h-2a2 2 0 0 1-2-2V2a2 2 0 0 1 2-2Z" fill="#3458b3" class="fill-445f96"></path><path d="M40 44H10a2 2 0 0 0 0 4h30a2 2 0 0 0 2-2v-4a2.006 2.006 0 0 1-2 2Z" fill="#a09b8c" class="fill-a09b8c"></path><path d="M40 44H10a2 2 0 0 0 0 4h30a2 2 0 0 0 2-2v-4a2.006 2.006 0 0 1-2 2Z" fill="#f1f2f2" class="fill-f1f2f2"></path><path d="M42 44v2a2.006 2.006 0 0 1-2 2H10a2 2 0 0 1-1.73-3A2 2 0 0 0 10 46h30a2.006 2.006 0 0 0 2-2Z" fill="#526785" class="fill-4c5665"></path><rect height="10" rx="1" ry="1" width="19" x="17" y="6" fill="#3458b3" class="fill-445f96"></rect></svg>