<svg width="17" height="16" viewBox="0 0 17 16" fill="none" xmlns="http://www.w3.org/2000/svg">
<path d="M8.46942 13.3668C8.98792 12.8003 9.61127 12.1339 10.1354 11.6158C10.5098 11.2456 11.015 11.0381 11.5414 11.0381H14.4315C14.6893 11.0381 15.0007 10.7174 15.0007 10.3191V2.59145C15.0007 2.27086 14.7609 2.00002 14.4772 2.00002H2.52393C2.24017 2.00002 2.00049 2.27086 2.00049 2.59145V10.3202C2.00049 10.7178 2.31128 11.0381 2.56854 11.0381H5.37671C5.92389 11.0381 6.44714 11.2622 6.82458 11.6583C7.19727 12.0494 7.89661 12.7742 8.46942 13.3668ZM8.50061 15.9377C8.29126 15.9377 8.08826 15.8506 7.94269 15.6986C7.94269 15.6986 6.08759 13.784 5.37671 13.0381H2.56854C1.17676 13.0381 0.000488281 11.7939 0.000488281 10.3202V2.59145C0.000488281 1.16238 1.13202 1.52588e-05 2.52393 1.52588e-05H14.4772C15.8691 1.52588e-05 17.0007 1.16238 17.0007 2.59145V10.3191C17.0007 11.7928 15.8245 13.0381 14.4315 13.0381H11.5414C10.5247 14.0432 9.08917 15.6657 9.07422 15.6816C8.91278 15.8506 8.70984 15.9377 8.50061 15.9377Z" fill="#292929"/>
<path d="M4.92627 7.411C5.47855 7.411 5.92627 6.96328 5.92627 6.411C5.92627 5.85871 5.47855 5.411 4.92627 5.411C4.37398 5.411 3.92627 5.85871 3.92627 6.411C3.92627 6.96328 4.37398 7.411 4.92627 7.411Z" fill="#292929"/>
<path d="M8.32617 7.411C8.87846 7.411 9.32617 6.96328 9.32617 6.411C9.32617 5.85871 8.87846 5.411 8.32617 5.411C7.77389 5.411 7.32617 5.85871 7.32617 6.411C7.32617 6.96328 7.77389 7.411 8.32617 7.411Z" fill="#292929"/>
<path d="M11.7266 7.411C12.2788 7.411 12.7266 6.96328 12.7266 6.411C12.7266 5.85871 12.2788 5.411 11.7266 5.411C11.1743 5.411 10.7266 5.85871 10.7266 6.411C10.7266 6.96328 11.1743 7.411 11.7266 7.411Z" fill="#292929"/>
</svg>
