<svg data-name="Layer 1" viewBox="0 0 256 256" xmlns="http://www.w3.org/2000/svg"><path d="M132 17.14a60.65 60.65 0 0 0-33.29 111.34l.13.08h66.33l.13-.08A60.65 60.65 0 0 0 132 17.14Z" fill="#3fe0fc" class="fill-ffdd00"></path><path d="M132 17.14c-1.69 0-3.35.09-5 .22a60.64 60.64 0 0 1 28.29 111.12l-.12.08h10l.13-.08A60.65 60.65 0 0 0 132 17.14Z" fill="#00ddff" class="fill-efc803"></path><path d="M142.67 64.59a7.78 7.78 0 0 0-5.83 2.65 2.16 2.16 0 0 1-3 0 7.75 7.75 0 0 0-11.67 0 2.16 2.16 0 0 1-3 0 7.77 7.77 0 0 0-13.62 5.13v56.2h44.91v-56.2a7.79 7.79 0 0 0-7.79-7.78Z" fill="#effafe" class="fill-effafe"></path><path d="m164.15 210.31-16.67 3.42a2 2 0 0 1-.8 0L128 209.9l-18.67 3.83a2 2 0 0 1-.8 0l-11.67-3.42v15.11h67.3Z" fill="#eb5639" class="fill-eb5639"></path><path d="M159.15 211.34v14.08h5v-15.11l-5 1.03z" fill="#d84936" class="fill-d84936"></path><path d="M164.15 161.92h-67.3v45.31l12.07 2.5 18.67-3.83a2 2 0 0 1 .8 0l18.67 3.83 17.08-3.5Z" fill="#3fe0fc" class="fill-ffdd00"></path><path d="M161.38 142.36H99.62a2.89 2.89 0 0 0 .12 5.77h61.52a2.89 2.89 0 0 0 .12-5.77ZM161.38 132.58H99.62a2.89 2.89 0 0 0 .12 5.77h61.52a2.89 2.89 0 0 0 .12-5.77ZM161.38 152.15H99.62a2.89 2.89 0 0 0 .12 5.77h61.52a2.89 2.89 0 0 0 .12-5.77Z" fill="#40bdff" class="fill-40bdff"></path><path d="M165.47 229.42h-58.94L136 243.78l29.47-14.36z" fill="#3fe0fc" class="fill-ffdd00"></path><path d="m150.47 229.42-21.97 10.7 7.5 3.66 29.47-14.36h-15z" fill="#00ddff" class="fill-efc803"></path><path d="M161.38 142.36H99.62a2.89 2.89 0 0 0 .12 5.77h61.52a2.89 2.89 0 0 0 .12-5.77ZM161.38 132.58H99.62a2.89 2.89 0 0 0 .12 5.77h61.52a2.89 2.89 0 0 0 .12-5.77ZM161.38 152.15H99.62a2.89 2.89 0 0 0 .12 5.77h61.52a2.89 2.89 0 0 0 .12-5.77Z" fill="#40bdff" class="fill-40bdff"></path><path d="M142.67 64.59a7.72 7.72 0 0 0-2.5.42 7.79 7.79 0 0 1 5.28 7.36v56.2h5v-56.2a7.79 7.79 0 0 0-7.78-7.78Z" fill="#e4ebed" class="fill-e4ebed"></path><path d="M156.38 142.36H94.62a2.89 2.89 0 0 0 .12 5.77h61.52a2.89 2.89 0 0 0 .12-5.77ZM156.38 132.58H94.62a2.89 2.89 0 0 0 .12 5.77h61.52a2.89 2.89 0 0 0 .12-5.77ZM156.38 152.15H94.62a2.89 2.89 0 0 0 .12 5.77h61.52a2.89 2.89 0 0 0 .12-5.77Z" fill="#40bdff" class="fill-40bdff"></path><path d="M89.45 130.31a7.36 7.36 0 0 0-.24 10 7.35 7.35 0 0 0 0 9.78 7.33 7.33 0 0 0-1.15 8 2.49 2.49 0 0 0-.71 1.74v67.5a2.53 2.53 0 0 0 1.41 2.25l38.15 18.58a2.5 2.5 0 0 0 2.19 0l38.15-18.58a2.52 2.52 0 0 0 1.41-2.25v-67.5a2.49 2.49 0 0 0-.71-1.74 7.38 7.38 0 0 0-1.14-8 7.38 7.38 0 0 0 0-9.78 7.38 7.38 0 0 0-.24-10 65.15 65.15 0 1 0-77.1 0ZM128 243.22l-27.3-13.29h54.6Zm35.65-18.29h-71.3v-14l16.07 3.3a2.52 2.52 0 0 0 1 0l18.58-3.82 18.57 3.81a2.51 2.51 0 0 0 1 0l16.07-3.3Zm0-19.1-16.58 3.4-18.57-3.81a2.52 2.52 0 0 0-1 0l-18.57 3.81-16.57-3.4v-43.4h71.3Zm-2.39-48.4H94.74a2.39 2.39 0 0 1-.1-4.77h66.72a2.39 2.39 0 0 1-.1 4.77Zm0-9.78H94.74a2.39 2.39 0 0 1-.1-4.77h66.72a2.39 2.39 0 0 1-.1 4.77Zm0-9.78H94.74a2.39 2.39 0 0 1-.1-4.77h66.72a2.39 2.39 0 0 1-.1 4.77ZM106 128.06V72.37a7.27 7.27 0 0 1 12.74-4.8 2.58 2.58 0 0 0 3.75 0 7.25 7.25 0 0 1 10.92 0 2.58 2.58 0 0 0 3.75 0 7.27 7.27 0 0 1 12.84 4.8v55.7Zm22-110.42a60.15 60.15 0 0 1 33 110.43h-6v-55.7a12.27 12.27 0 0 0-19.62-9.84 12.24 12.24 0 0 0-14.67 0A12.27 12.27 0 0 0 101 72.37v55.7h-6a60.15 60.15 0 0 1 33-110.43ZM32.14 80.28h23.43a2.5 2.5 0 0 0 0-5H32.14a2.5 2.5 0 1 0 0 5Z" fill="#263238" class="fill-263238"></path><path d="M200.43 80.28h23.43a2.5 2.5 0 0 0 0-5h-23.43a2.5 2.5 0 0 0 0 5ZM75 127.23 58.45 143.8a2.5 2.5 0 0 0 3.55 3.54l16.57-16.57a2.5 2.5 0 0 0-3.57-3.54ZM181 28.34l16.57-16.57A2.5 2.5 0 0 0 194 8.23L177.45 24.8a2.5 2.5 0 1 0 3.55 3.54ZM181 127.23a2.5 2.5 0 1 0-3.54 3.54L194 147.34a2.5 2.5 0 0 0 3.54-3.54ZM75 28.34a2.5 2.5 0 0 0 3.54-3.54L62 8.23a2.5 2.5 0 0 0-3.54 3.54Z" fill="#263238" class="fill-263238"></path><path d="M52.75 129.57h-4v-4a1 1 0 0 0-2 0v4h-4a1 1 0 0 0 0 2h4v4a1 1 0 0 0 2 0v-4h4a1 1 0 0 0 0-2ZM227 181.5h-4v-4a1 1 0 0 0-2 0v4h-4a1 1 0 0 0 0 2h4v4a1 1 0 0 0 2 0v-4h4a1 1 0 0 0 0-2Z" fill="#3fe0fc" class="fill-ffdd00"></path><path d="M175.15 15h-4v-4a1 1 0 0 0-2 0v4h-4a1 1 0 0 0 0 2h4v4a1 1 0 0 0 2 0v-4h4a1 1 0 0 0 0-2ZM29.64 35.52a6 6 0 1 1 6-6 6 6 0 0 1-6 6Zm0-10a4 4 0 1 0 4 4 4 4 0 0 0-4-4Z" fill="#40bdff" class="fill-40bdff"></path><path d="M68.85 222a6 6 0 1 1 6-6 6 6 0 0 1-6 6Zm0-10a4 4 0 1 0 4 4 4 4 0 0 0-4-4ZM226.36 41a6 6 0 1 1 6-6 6 6 0 0 1-6 6Zm0-10a4 4 0 1 0 4 4 4 4 0 0 0-4-4Z" fill="#3fe0fc" class="fill-ffdd00"></path><path d="M73.85 164.62h-2.58l1.83-1.83a1 1 0 0 0-1.41-1.41l-1.83 1.83v-2.59a1 1 0 0 0-2 0v2.59L66 161.38a1 1 0 0 0-1.41 1.41l1.83 1.83h-2.57a1 1 0 0 0 0 2h2.59l-1.83 1.83a1 1 0 0 0 1.39 1.41l1.85-1.86v2.59a1 1 0 0 0 2 0V168l1.83 1.83a1 1 0 0 0 1.41-1.41l-1.83-1.83h2.59a1 1 0 0 0 0-2ZM187.15 170.62h-2.59l1.83-1.83a1 1 0 0 0-1.41-1.41l-1.83 1.83v-2.59a1 1 0 0 0-2 0v2.59l-1.83-1.83a1 1 0 0 0-1.41 1.41l1.83 1.83h-2.59a1 1 0 1 0 0 2h2.59l-1.83 1.83a1 1 0 0 0 1.41 1.41l1.83-1.83v2.59a1 1 0 0 0 2 0V174l1.83 1.83a1 1 0 0 0 1.41-1.41l-1.83-1.83h2.59a1 1 0 0 0 0-2ZM214 108.81h-2.59l1.83-1.83a1 1 0 0 0-1.41-1.41L210 107.4v-2.59a1 1 0 0 0-2 0v2.59l-1.83-1.83a1 1 0 0 0-1.41 1.41l1.83 1.83H204a1 1 0 0 0 0 2h2.59l-1.83 1.83a1 1 0 0 0 1.41 1.41l1.83-1.83v2.59a1 1 0 0 0 2 0v-2.59l1.83 1.83a1 1 0 0 0 1.41-1.41l-1.83-1.83H214a1 1 0 0 0 0-2Z" fill="#40bdff" class="fill-40bdff"></path></svg>