<svg viewBox="0 0 32 32" xmlns="http://www.w3.org/2000/svg"><path d="M14.49 13.15a1 1 0 0 0-.78-.37H7.6a1 1 0 0 0-1 1V25a2 2 0 0 0 2 2h1.75a2 2 0 0 0 2-1.59L14.69 14a1 1 0 0 0-.2-.85Z" fill="#ff9797" class="fill-ff9797"></path><path d="m14.27 16-2 9.41a2 2 0 0 1-2 1.59H8.6a2 2 0 0 1-2-2v-9Z" fill="#e47979" class="fill-e47979"></path><circle cx="23.38" cy="15.16" r="7.62" fill="#ffc661" class="fill-ffc661"></circle><path d="M31 16a7.61 7.61 0 0 1-6 6.6 7.18 7.18 0 0 1-1.62.18 7.76 7.76 0 0 1-1.94-.25A7.64 7.64 0 0 1 15.81 16Z" fill="#e49f4e" class="fill-e49f4e"></path><path d="M24.61 6.37a1 1 0 0 0-.88-.17l-17.86 5H5a4 4 0 0 0 0 8h.87l17.86 5a1.24 1.24 0 0 0 .27 0 1 1 0 0 0 .61-.2 1 1 0 0 0 .39-.8v-16a1 1 0 0 0-.39-.83Z" fill="#b6d5fa" class="fill-eef5fd"></path><path d="M7 16H1.09A4 4 0 0 0 5 19.17h.87l15.76 4.38 2.1.58a1.24 1.24 0 0 0 .27 0 1 1 0 0 0 .61-.2 1 1 0 0 0 .39-.8V16Z" fill="#b0d0ff" class="fill-d7e2f2"></path><path d="M24.22 5a2.78 2.78 0 0 0-2.78 2.78v14.77a2.78 2.78 0 0 0 5.56 0V7.78A2.79 2.79 0 0 0 24.22 5Z" fill="#ff9797" class="fill-ff9797"></path><path d="M27 16v6.55a2.78 2.78 0 0 1-5.56 0V16Z" fill="#e47979" class="fill-e47979"></path></svg>