<svg width="29" height="27" viewBox="0 0 29 27" fill="none" xmlns="http://www.w3.org/2000/svg">
<path d="M27.2698 10.136L19.7358 1.62001L20.2958 1.12501C20.399 1.03365 20.5342 0.986883 20.6717 0.994942C20.8093 1.003 20.9381 1.06523 21.0298 1.16801L27.8738 8.90601C27.9652 9.00917 28.012 9.14432 28.0039 9.28189C27.9958 9.41945 27.9336 9.54822 27.8308 9.64001L27.2708 10.14L27.2698 10.136Z" fill="#FE73B2"/>
<path d="M19.7779 1.58301L27.3309 10.121L25.7439 11.521L18.1909 2.98301L19.7779 1.58301Z" fill="#C6C6C6"/>
<path d="M18.203 2.98401L20.735 5.84601L6.17995 18.725L3.64795 15.863L18.203 2.98401Z" fill="#446FD8"/>
<path d="M20.6991 5.83L23.2311 8.69201L8.67311 21.571L6.14111 18.709L20.6991 5.83Z" fill="#557EE6"/>
<path d="M23.2128 8.66301L25.7448 11.525L11.1868 24.404L8.65576 21.542L23.2128 8.66301Z" fill="#3259B6"/>
<path d="M0.0170898 26.681L3.64309 15.858L11.1951 24.395L0.0170898 26.681Z" fill="#FFC732"/>
<path d="M0 26.694L0.721001 24.584L2.18 26.238L0 26.694Z" fill="#557FE5"/>
</svg>
