<svg viewBox="0 0 48 48" xmlns="http://www.w3.org/2000/svg" xmlns:xlink="http://www.w3.org/1999/xlink"><defs><linearGradient gradientUnits="userSpaceOnUse" id="a" x1="22.98" x2="26.48" y1="23.9" y2="28.27"><stop offset=".04" stop-color="#fbb480" class="stop-color-fbb480"></stop><stop offset="1" stop-color="#c27c4a" class="stop-color-c27c4a"></stop></linearGradient><linearGradient id="b" x1="7.85" x2="11.63" xlink:href="#a" y1="35.07" y2="39.53"></linearGradient><linearGradient id="c" x1="7.26" x2="12.14" xlink:href="#a" y1="33.38" y2="38.26"></linearGradient><linearGradient id="d" x1="35.06" x2="41.75" xlink:href="#a" y1="9.61" y2="16.3"></linearGradient><linearGradient id="e" x1="32.45" x2="41.29" xlink:href="#a" y1="6.23" y2="17.91"></linearGradient><linearGradient gradientTransform="rotate(44.99 18.075 23.563)" gradientUnits="userSpaceOnUse" id="f" x1="17.07" x2="22.48" y1="22.56" y2="27.98"><stop offset=".01" stop-color="#557fe5" class="stop-color-ffdc2e"></stop><stop offset="1" stop-color="#446fd8" class="stop-color-f79139"></stop></linearGradient><linearGradient gradientTransform="rotate(45 24.33 29.817)" gradientUnits="userSpaceOnUse" id="g" x1="22.57" x2="26.35" y1="28.06" y2="31.84"><stop offset=".01" stop-color="#3259b6" class="stop-color-f46000"></stop><stop offset="1" stop-color="#446fd8" class="stop-color-de722c"></stop></linearGradient><linearGradient gradientTransform="rotate(45 21.195 26.69)" gradientUnits="userSpaceOnUse" id="h" x1="20.21" x2="24.85" y1="25.7" y2="30.35"><stop offset=".01" stop-color="#557ee6" class="stop-color-f99d46"></stop><stop offset="1" stop-color="#3259b6" class="stop-color-f46000"></stop></linearGradient><linearGradient gradientTransform="rotate(44.98 35.272 18.87)" gradientUnits="userSpaceOnUse" id="i" x1="34.09" x2="36.35" y1="17.69" y2="19.95"><stop offset=".01" stop-color="#a1a1a1" class="stop-color-a1a1a1"></stop><stop offset="1" stop-color="#828282" class="stop-color-828282"></stop></linearGradient><linearGradient gradientTransform="rotate(44.98 29.001 12.609)" gradientUnits="userSpaceOnUse" id="j" x1="27.79" x2="30.61" y1="11.39" y2="14.22"><stop offset=".01" stop-color="#fafafa" class="stop-color-fafafa"></stop><stop offset="1" stop-color="#dedede" class="stop-color-dedede"></stop></linearGradient><linearGradient gradientTransform="rotate(45 32.148 15.746)" gradientUnits="userSpaceOnUse" id="k" x1="30.43" x2="34.61" y1="14.03" y2="18.21"><stop offset=".01" stop-color="#d4d4d4" class="stop-color-d4d4d4"></stop><stop offset="1" stop-color="#a6a6a6" class="stop-color-a6a6a6"></stop></linearGradient><linearGradient gradientTransform="rotate(44.99 35.27 18.874)" gradientUnits="userSpaceOnUse" id="l" x1="33.9" x2="36.13" y1="17.5" y2="19.73"><stop offset=".01" stop-color="#b2b2b2" class="stop-color-b2b2b2"></stop><stop offset="1" stop-color="#939393" class="stop-color-939393"></stop></linearGradient><linearGradient gradientTransform="rotate(44.99 29.014 12.61)" gradientUnits="userSpaceOnUse" id="m" x1="28.07" x2="30.21" y1="11.67" y2="13.81"><stop offset=".01" stop-color="#fafafa" class="stop-color-fafafa"></stop><stop offset="1" stop-color="#efefef" class="stop-color-efefef"></stop></linearGradient><linearGradient gradientTransform="rotate(45 32.148 15.746)" gradientUnits="userSpaceOnUse" id="n" x1="30.39" x2="34.73" y1="14" y2="18.34"><stop offset=".01" stop-color="#e5e5e5" class="stop-color-e5e5e5"></stop><stop offset="1" stop-color="#b7b7b7" class="stop-color-b7b7b7"></stop></linearGradient></defs><g data-name="Layer 3"><path d="m41.43 11.27-4.82-4.81a2.8 2.8 0 0 0-4 0L8 31.06l-1.73 7.67 3.06 3.06 7.49-1.94 24.61-24.6a2.83 2.83 0 0 0 0-3.98Z" fill="url(#a)" class="fillurl(-a)"></path><path d="m7.24 39.7 3.32-6.11 3.73 3.73-6.1 3.33-.95-.95z" fill="url(#b)" class="fillurl(-b)"></path><path d="m9.33 41.78 7.49-1.93 1.63-1.62-4.16-.91-6.1 3.33 1.14 1.13z" fill="url(#c)" class="fillurl(-c)"></path><path d="m7.33 42.3 2-.51-3.06-3.06-.46 2c-.25 1.09.42 1.85 1.52 1.57Z" fill="#666666" class="fill-666666"></path><path d="m41.43 11.27-4.82-4.81a2.8 2.8 0 0 0-4 0l-2.69 2.71 2.53 2.53 3.73 3.73L38.71 18l2.72-2.71a2.83 2.83 0 0 0 0-4.02Z" fill="url(#d)" class="fillurl(-d)"></path><path d="M41.46 11.87 37.62 8a2.25 2.25 0 0 0-3.17 0l-3.07 3.08 2 2 3 3 2 2L41.46 15a2.24 2.24 0 0 0 0-3.13Z" fill="url(#e)" class="fillurl(-e)"></path><path transform="rotate(-44.99 18.065 23.563)" d="M5.67 21.77h24.8v3.58H5.67z" fill="url(#f)" class="fillurl(-f)"></path><path transform="rotate(-45 24.32 29.816)" d="M11.92 28.03h24.8v3.58h-24.8z" fill="url(#g)" class="fillurl(-g)"></path><path transform="rotate(-45 21.192 26.682)" d="M8.79 24.05h24.8v5.27H8.79z" fill="url(#h)" class="fillurl(-h)"></path><path transform="rotate(-44.98 35.265 18.872)" d="M31.46 17.08h7.63v3.58h-7.63z" fill="url(#i)" class="fillurl(-i)"></path><path transform="rotate(-44.98 29.011 12.62)" d="M25.2 10.83h7.62v3.58H25.2z" fill="url(#j)" class="fillurl(-j)"></path><path transform="rotate(-45 32.142 15.746)" d="M28.33 13.11h7.62v5.27h-7.62z" fill="url(#k)" class="fillurl(-k)"></path><path transform="rotate(-44.99 35.268 18.876)" d="M32.19 17.08h6.15v3.58h-6.15z" fill="url(#l)" class="fillurl(-l)"></path><path transform="rotate(-44.99 29.004 12.62)" d="M25.94 10.83h6.15v3.58h-6.15z" fill="url(#m)" class="fillurl(-m)"></path><path transform="rotate(-45 32.142 15.746)" d="M29.06 13.11h6.15v5.27h-6.15z" fill="url(#n)" class="fillurl(-n)"></path></g></svg>