<svg width="9" height="8" viewBox="0 0 9 8" fill="none" xmlns="http://www.w3.org/2000/svg">
<path d="M0.999969 2.86802L1.02397 2.79602C1.06369 2.6761 1.14854 2.57635 1.26054 2.51793C1.37255 2.4595 1.50289 2.44698 1.62397 2.48302C1.68257 2.50236 1.73645 2.53381 1.7821 2.57533C1.82776 2.61685 1.86417 2.66751 1.88897 2.72402C1.93484 2.80686 1.95479 2.90158 1.94624 2.99589C1.93768 3.0902 1.90101 3.17978 1.84097 3.25302C1.81697 3.25302 1.81697 3.27702 1.79297 3.30102C2.15397 3.51802 2.49297 3.73402 2.82797 3.92702C2.94797 3.99902 3.09297 4.09602 3.21297 4.16802C3.22319 4.17805 3.23564 4.18552 3.2493 4.18984C3.26296 4.19415 3.27743 4.19518 3.29156 4.19284C3.3057 4.1905 3.31907 4.18486 3.33061 4.17638C3.34215 4.16789 3.35153 4.15681 3.35797 4.14402L3.38197 4.12002C3.78997 3.39802 4.17497 2.67602 4.58197 1.93002C4.49706 1.89338 4.42464 1.83285 4.3735 1.7558C4.32237 1.67874 4.29474 1.58849 4.29397 1.49602C4.29084 1.39995 4.31652 1.30514 4.36768 1.22377C4.41885 1.14241 4.49317 1.07819 4.58111 1.03939C4.66904 1.00058 4.76657 0.988947 4.86117 1.00599C4.95576 1.02303 5.0431 1.06796 5.11197 1.13502L5.13597 1.15902C5.32797 1.40002 5.25597 1.68802 4.94397 1.90502C5.03378 2.0972 5.13843 2.28209 5.25697 2.45802C5.54497 2.98702 5.83497 3.51702 6.12297 4.02202C6.19497 4.14202 6.24297 4.16702 6.33897 4.09402C6.79597 3.83102 7.22897 3.54102 7.68697 3.27702L7.75897 3.22902C7.66618 3.14893 7.60603 3.03754 7.58997 2.91602C7.58266 2.79204 7.6237 2.67006 7.70444 2.57571C7.78519 2.48135 7.89936 2.42196 8.02297 2.41002C8.12971 2.40209 8.23591 2.43131 8.32357 2.49273C8.41123 2.55415 8.47496 2.64398 8.50397 2.74702C8.50695 2.78786 8.51502 2.82817 8.52797 2.86702V3.04102C8.50138 3.15392 8.43636 3.25407 8.34405 3.3243C8.25174 3.39454 8.13788 3.4305 8.02197 3.42602C8.02197 3.45002 7.99797 3.47402 7.99797 3.52602L7.20397 6.22102C7.17997 6.34102 7.13197 6.36602 7.01197 6.36602H2.51197C2.39197 6.36602 2.34297 6.34202 2.31997 6.22102C2.10397 5.49902 1.88697 4.77702 1.69397 4.03102C1.64597 3.83902 1.57397 3.64602 1.52497 3.43102C1.43484 3.43161 1.34595 3.40992 1.26622 3.36787C1.18649 3.32583 1.11839 3.26473 1.06797 3.19002C1.04844 3.13959 1.02434 3.09106 0.995972 3.04502V2.86802H0.999969ZM4.77797 6.81502H6.89497C6.98747 6.81205 7.07739 6.84583 7.14504 6.90899C7.2127 6.97215 7.25258 7.05953 7.25597 7.15202C7.25732 7.23626 7.22933 7.31836 7.17678 7.38422C7.12423 7.45008 7.05041 7.49562 6.96797 7.51302H2.65997C2.58589 7.51216 2.51385 7.48859 2.45358 7.44549C2.39332 7.4024 2.34773 7.34185 2.32297 7.27202C2.29777 7.20359 2.29587 7.12875 2.31757 7.05913C2.33927 6.98951 2.38335 6.92901 2.44297 6.88702C2.51347 6.83773 2.59798 6.81248 2.68397 6.81502C3.38197 6.79102 4.07997 6.81602 4.77797 6.81602V6.81502Z" fill="#F0BF41"/>
</svg>
