<?xml version="1.0" ?><svg id="_x31_-outline-expand" style="enable-background:new 0 0 64 64;" version="1.1" viewBox="0 0 64 64" xml:space="preserve" xmlns="http://www.w3.org/2000/svg" xmlns:xlink="http://www.w3.org/1999/xlink"><polygon points="27.779,24.146 20.255,3.474 25.893,1.422 39.055,20.043 " style="fill:#42A5B2;"/><path d="M4.799,28.254l45.178-16.443c1.142-0.416,2.411-0.29,3.449,0.342l3.826,2.33  c2.076-0.755,4.372,0.315,5.127,2.391c0.756,2.076-0.314,4.371-2.391,5.127L28.039,33.629L6.851,33.892L4.799,28.254z" style="fill:#62C4C3;"/><polygon points="5.138,17.489 1.379,18.857 4.799,28.254 12.317,25.518 " style="fill:#42A5B2;"/><polygon points="29.148,27.905 36.671,48.578 42.311,46.526 40.423,23.801 " style="fill:#42A5B2;"/><rect height="2" style="fill:#3A4249;" transform="matrix(0.9398 -0.3417 0.3417 0.9398 -1.8093 19.2123)" width="5" x="51.122" y="13.741"/><rect height="1.999" style="fill:#3A4249;" transform="matrix(0.9397 -0.3419 0.3419 0.9397 -3.2838 16.6657)" width="1.999" x="44.634" y="16.648"/><rect height="1.999" style="fill:#3A4249;" transform="matrix(0.9397 -0.3419 0.3419 0.9397 -3.9781 15.463)" width="1.999" x="40.875" y="18.016"/><rect height="1.999" style="fill:#3A4249;" transform="matrix(0.9397 -0.3419 0.3419 0.9397 -4.6724 14.2604)" width="1.999" x="37.117" y="19.385"/><rect height="1.999" style="fill:#3A4249;" transform="matrix(0.9397 -0.3419 0.3419 0.9397 -5.3667 13.0577)" width="1.999" x="33.358" y="20.753"/><rect height="1.999" style="fill:#3A4249;" transform="matrix(0.9397 -0.3419 0.3419 0.9397 -6.0609 11.855)" width="1.999" x="29.599" y="22.121"/><rect height="1.999" style="fill:#3A4249;" transform="matrix(0.9397 -0.3419 0.3419 0.9397 -6.7551 10.6523)" width="1.999" x="25.84" y="23.489"/><rect height="1.999" style="fill:#3A4249;" transform="matrix(0.9397 -0.3419 0.3419 0.9397 -7.4494 9.4496)" width="1.999" x="22.081" y="24.857"/><rect height="2" style="fill:#3A4249;" transform="matrix(0.9396 -0.3423 0.3423 0.9396 -8.1523 8.2597)" width="2" x="18.323" y="26.225"/><rect height="2" style="fill:#3A4249;" transform="matrix(0.9396 -0.3423 0.3423 0.9396 -8.8478 7.0556)" width="2" x="14.564" y="27.593"/><path d="M36,54H19c-3.309,0-6-2.691-6-6s2.691-6,6-6h7v2h-7c-2.206,0-4,1.794-4,4s1.794,4,4,4h17V54z" style="fill:#3A4249;"/><rect height="2" style="fill:#3A4249;" width="2" x="38" y="52"/><path d="M50.5,61H19v-2h31.5c1.379,0,2.5-1.122,2.5-2.5S51.879,54,50.5,54H42v-2h8.5  c2.481,0,4.5,2.019,4.5,4.5S52.981,61,50.5,61z" style="fill:#3A4249;"/><rect height="2" style="fill:#3A4249;" width="10" x="7" y="59"/><circle cx="5" cy="60" r="3" style="fill:#EFBC2E;"/><circle cx="28" cy="43" r="3" style="fill:#EFBC2E;"/></svg>